<?xml version="1.0" encoding="UTF-8" standalone="no"?>
<!-- Created with Inkscape (http://www.inkscape.org/) -->

<svg
   version="1.1"
   id="svg1"
   width="551.86841"
   height="526.16064"
   viewBox="0 0 551.86841 526.16064"
   xmlns="http://www.w3.org/2000/svg"
   xmlns:svg="http://www.w3.org/2000/svg">
  <defs
     id="defs1" />
  <ellipse
     style="fill:#ffffff;stroke-width:1.12626"
     id="path233"
     cx="275.63562"
     cy="263.37238"
     rx="275.14899"
     ry="262.78827" />
  <g
     id="g1"
     transform="translate(-242.94783,-235.89496)">
    <g
       id="g232">
      <path
         style="display:inline;fill:#123fad;stroke-width:1.00412"
         d="M 493.529,760.92914 C 454.72533,757.14451 413.40795,744.82082 383.64875,728.15529 360.03734,714.9326 346.14006,704.72684 326.62248,686.27686 301.78857,662.80134 284.74517,640.25863 270.46803,612.0033 258.64992,588.61453 252.45634,571.19595 247.58571,547.65 c -8.90235,-43.03638 -4.86876,-91.96458 11.0668,-134.24226 4.25961,-11.30093 7.95073,-19.86673 8.38071,-19.44871 0.17458,0.16972 -0.57719,3.63301 -1.67056,7.69621 -2.2087,8.20785 -4.558,35.48793 -3.68101,42.74385 0.67824,5.6116 2.75647,12.66127 3.7325,12.66127 0.38735,0 0.48636,-3.30084 0.22004,-7.3352 -0.26633,-4.03435 -0.13229,-12.16513 0.29786,-18.06842 0.72991,-10.01713 0.87127,-10.53508 2.11885,-7.7631 0.7384,1.64066 1.36273,6.73707 1.39479,11.3856 0.0318,4.62848 0.73457,10.8658 1.56145,13.8607 0.82689,2.9949 1.51336,8.7867 1.52548,12.87066 0.0267,8.98329 2.82182,15.6762 8.6103,20.61704 4.01212,3.4246 10.33144,6.60072 15.02584,7.55206 2.05053,0.41556 3.27344,1.69439 4.77409,4.9924 1.53741,3.37878 2.94119,4.81431 5.89979,6.03315 8.14603,3.35592 9.05088,4.08983 12.4756,10.11901 1.92869,3.39544 5.62044,8.46776 8.20386,11.27182 4.54323,4.93126 4.90432,5.11288 11.01987,5.54292 5.7891,0.4071 6.38582,0.6643 7.07039,3.04745 1.21363,4.22493 0.66014,13.48479 -0.99051,16.57106 -0.84208,1.57445 -2.97025,5.46963 -4.72926,8.65596 -5.59406,10.13322 -4.24232,19.04491 5.24719,34.59372 3.05979,5.01351 7.29824,12.21409 9.41877,16.00126 4.14124,7.39605 11.31136,14.91006 21.77628,22.82064 3.59823,2.71995 7.42652,6.62082 8.50733,8.6686 1.08399,2.05383 2.84243,9.37841 3.92181,16.33584 2.77228,17.86954 9.29539,42.71987 13.40838,51.08048 8.36804,17.00995 23.9565,31.16472 38.65411,35.09905 3.7338,0.99948 5.56002,-0.10775 2.03681,-1.23493 -0.98022,-0.31359 -3.59994,-2.0679 -5.82162,-3.89844 -3.70651,-3.05399 -4.09557,-3.84879 -4.72106,-9.64456 -0.37491,-3.47397 -1.02606,-8.00456 -1.44699,-10.068 -0.61757,-3.02733 -0.41289,-4.00224 1.06007,-5.04931 1.40945,-1.00193 1.68796,-2.12104 1.2222,-4.91125 l -0.60321,-3.61363 h 4.08793 c 5.77314,0 10.43905,-4.48721 9.84134,-9.46442 -0.36834,-3.06731 -0.11688,-3.52438 2.18346,-3.96872 8.48654,-1.63933 12.61345,-6.20131 14.36252,-15.87677 2.05615,-11.3741 5.12293,-15.04902 14.85358,-17.79905 11.87902,-3.35717 16.09361,-10.19107 15.82484,-25.65978 -0.19333,-11.1276 0.055,-11.80402 8.35632,-22.76232 8.79004,-11.6034 7.41638,-18.42382 -5.58454,-27.72807 -6.21322,-4.44656 -11.27545,-6.42187 -16.48357,-6.43199 -3.57553,-0.007 -9.65225,-2.99616 -12.83926,-6.31578 -2.57588,-2.68305 -6.02695,-4.03127 -12.99883,-5.07825 -5.43385,-0.81601 -6.88687,-2.50584 -8.93617,-10.39261 -2.98494,-11.48762 -8.2865,-16.96528 -20.03434,-20.69975 -7.04791,-2.24042 -8.99151,-3.7734 -13.68291,-10.79214 -1.56811,-2.34602 -4.86256,-5.41147 -7.32102,-6.8121 -3.85729,-2.19758 -5.21941,-2.46098 -9.93843,-1.92178 -4.56718,0.52182 -6.83451,0.13518 -13.7562,-2.34589 -4.55825,-1.63388 -9.90628,-2.97068 -11.88452,-2.97068 -3.79558,0 -6.1752,1.9066 -13.35735,10.70218 l -3.34462,4.09597 -8.77099,-0.40174 c -5.74678,-0.2632 -9.26986,-0.8867 -10.21782,-1.80827 -2.837,-2.75801 -4.16089,-8.78743 -3.62369,-16.50339 0.46521,-6.68176 0.29576,-7.66637 -1.60521,-9.32735 -1.31981,-1.1532 -3.88723,-1.9292 -6.77404,-2.04745 -2.81607,-0.11536 -5.33778,-0.86031 -6.39657,-1.88964 -1.65156,-1.60556 -1.6435,-1.87463 0.14626,-4.88291 2.39228,-4.02101 4.69724,-11.26953 4.71162,-14.8168 0.0216,-5.33423 -5.86515,-2.82322 -11.26346,4.80447 -3.78359,5.34616 -7.10963,6.89085 -10.96985,5.09465 -9.92308,-4.61725 -4.87406,-37.30488 6.96822,-45.11262 2.99613,-1.9754 4.42199,-2.26696 8.94322,-1.82877 4.28118,0.41492 6.52116,0.0301 10.9769,-1.88552 3.07898,-1.32376 6.21068,-2.40683 6.95935,-2.40683 3.08491,0 6.67221,4.27345 9.35425,11.14347 1.54007,3.94486 3.50141,8.2289 4.35853,9.52007 1.45419,2.19059 1.60848,2.22369 2.30724,0.49502 0.41186,-1.01891 0.78106,-6.24045 0.82041,-11.60345 0.0484,-6.58261 0.57882,-10.79001 1.63266,-12.949 2.0377,-4.17454 7.86993,-9.58234 14.17957,-13.14764 4.21042,-2.37913 5.41635,-3.74439 7.27254,-8.23342 2.90158,-7.0172 7.80084,-12.59206 13.02295,-14.8188 2.30502,-0.98287 6.93886,-4.51783 10.29744,-7.85547 7.24,-7.19486 11.49392,-8.80997 17.15138,-6.51194 2.01546,0.81865 4.08526,1.48848 4.59954,1.48848 1.83099,0 13.38913,-8.10778 12.82442,-8.99607 -0.31625,-0.49744 -2.34834,-0.90445 -4.51577,-0.90445 -6.11634,0 -8.75142,-3.49259 -5.64626,-7.48365 3.97243,-5.1058 -0.71196,-5.59875 -7.23565,-0.76145 -1.88388,1.3969 -3.42524,2.07937 -3.42524,1.51658 0,-2.64083 16.36762,-12.08244 20.94565,-12.08244 1.48252,0 5.96903,-0.732 9.97004,-1.62666 10.17412,-2.27506 13.60172,-6.56753 8.65834,-10.84303 -2.65727,-2.29826 -5.91374,-8.9542 -5.94424,-12.14949 -0.0197,-2.06053 -0.36001,-2.25981 -2.82299,-1.65284 -7.99872,1.97118 -9.93157,1.79172 -13.03765,-1.21059 -1.65124,-1.59606 -3.99871,-4.08481 -5.2166,-5.53057 -4.35895,-5.17448 -11.73868,-1.83175 -13.07766,5.92369 -1.33765,7.74774 -1.96701,8.68011 -7.97549,11.81556 -3.20619,1.67309 -8.00574,5.12589 -10.66567,7.67288 -6.24041,5.97544 -7.50182,5.96845 -7.1087,-0.0394 0.29946,-4.57642 0.2237,-4.70787 -3.76802,-6.53806 -6.19071,-2.83838 -7.63806,-4.4813 -7.63806,-8.6701 0,-4.96396 3.25764,-8.59528 11.38482,-12.69081 3.54051,-1.78416 9.21552,-4.98529 12.61113,-7.1136 3.39605,-2.12862 8.37593,-4.26963 11.0682,-4.75859 7.92435,-1.43921 14.1251,-7.04114 7.7938,-7.04114 -3.79808,0 -3.9706,-1.26272 -0.61785,-4.52211 2.55601,-2.48486 5.09984,-6.36845 4.17145,-6.36845 -2.83308,0 -13.06406,5.06495 -16.56129,8.19882 -2.43746,2.18422 -4.70465,3.70601 -5.03817,3.38176 -0.33354,-0.32425 -0.91344,-2.0601 -1.28869,-3.85745 -0.62516,-2.99454 -1.03446,-3.29305 -4.89299,-3.5685 -4.86696,-0.34743 -20.64008,2.35332 -22.11433,3.78653 -0.65048,0.63236 -0.38969,0.9693 0.75027,0.9693 2.84368,0 9.88949,2.39639 9.5925,3.26256 -0.50748,1.48008 -6.85885,4.90103 -6.85885,3.69429 0,-2.45981 -2.94043,-3.77453 -9.97874,-4.46168 -7.25912,-0.70871 -7.35406,-0.68693 -12.41664,2.8489 -7.08672,4.94954 -6.38052,3.73526 1.26345,-2.17247 36.3415,-28.08693 89.37422,-49.65754 137.2303,-55.81726 12.66294,-1.6299 47.5506,-1.59368 61.1044,0.0635 35.70987,4.36593 66.55631,13.50566 99.80385,29.57164 16.58411,8.01383 44.2192,27.01444 49.3384,31.83766 l 3.08238,2.90417 -3.66054,-1.64426 c -1.78148,-0.80021 -3.40889,-3.01466 -4.51375,-3.74794 -1.10483,-0.73338 -1.74794,-2.3789 -2.77429,-2.3789 -1.02634,0 -3.80454,-0.85849 -6.17376,-1.90775 -6.49938,-2.87835 -10.20807,-3.62704 -9.63322,-1.94468 0.25883,0.75752 1.808,1.79524 3.44259,2.30607 8.04687,2.51469 10.09379,3.60256 8.55658,4.54748 -1.28793,0.79167 -1.25676,0.93099 0.21116,0.94391 0.94715,0.008 1.95832,0.38671 2.24701,0.84083 0.2887,0.45412 -4.20957,0.62097 -9.99615,0.37078 -11.49131,-0.49685 -11.53964,-0.47875 -16.50964,6.18256 -2.0813,2.78957 -2.32794,2.86008 -6.13,1.75268 -2.1788,-0.63462 -4.86922,-1.82089 -5.9787,-2.63615 -1.90747,-1.40164 -1.80768,-1.48401 1.83371,-1.51379 8.57432,-0.07 4.18247,-7.29853 -5.10491,-8.40206 -2.67108,-0.31736 -8.3041,-1.23696 -12.51782,-2.04354 -15.27454,-2.9238 -20.18505,-1.61327 -24.4569,6.5271 -1.11012,2.11542 -3.35262,4.51695 -4.98333,5.33674 -3.70832,1.86425 -7.19914,6.52936 -7.19914,9.62088 0,5.28738 6.92078,9.6124 13.37383,8.35774 2.7728,-0.53914 3.15381,-0.25277 4.88355,3.67018 2.24164,5.08393 7.38312,9.57314 10.96406,9.57314 2.24755,0 2.50429,-0.32444 1.95868,-2.47512 -0.34536,-1.36132 -0.9105,-3.58894 -1.25586,-4.95026 -0.44853,-1.76803 -0.21321,-2.47512 0.82376,-2.47512 0.79843,0 2.3096,-0.60987 3.35817,-1.35524 1.82443,-1.2969 1.76706,-1.5197 -1.33295,-5.17583 -3.5145,-4.14498 -4.10852,-6.79359 -1.72324,-7.68342 1.17302,-0.4376 1.29398,-1.13387 0.5344,-3.07607 -1.28803,-3.29348 1.40404,-3.53597 3.14021,-0.28284 2.64805,4.96175 8.22395,10.54578 11.61763,11.63462 3.7999,1.21915 4.51031,2.94923 2.03207,4.94872 -0.87439,0.70548 -1.52761,2.86434 -1.52761,5.04867 0,2.8799 -0.56218,4.16189 -2.29141,5.22542 -3.24617,1.99646 -15.93654,4.57667 -22.50964,4.57667 -4.8822,0 -6.08812,0.43022 -9.91226,3.53625 -5.99621,4.8702 -10.54695,6.95873 -18.26889,8.3844 -8.37649,1.54651 -9.20886,2.31976 -5.49605,5.10579 6.23223,4.67659 8.57632,7.5458 8.57632,10.49761 0,4.34792 -1.99136,5.41934 -8.58415,4.61855 -3.10014,-0.37655 -6.81947,-0.39602 -8.26519,-0.0433 -3.24792,0.79248 -5.44308,5.44286 -4.89441,10.36873 1.59367,14.30781 2.3109,15.21916 12.39829,15.75377 9.18053,0.48656 12.00316,-0.72322 14.40692,-6.17482 1.21122,-2.74699 3.06762,-4.97656 4.91826,-5.90691 1.63497,-0.82193 3.57516,-2.90846 4.31153,-4.63671 0.9,-2.11229 2.69957,-3.74311 5.49007,-4.97521 6.8806,-3.03802 8.76289,-2.53746 17.45172,4.64108 9.05474,7.48082 12.33146,9.08561 14.41519,7.05991 1.17913,-1.1463 0.53104,-2.29446 -4.21195,-7.46202 -5.90567,-6.43432 -8.25125,-9.88758 -7.3266,-10.7865 0.30627,-0.29773 4.06923,1.41113 8.36215,3.79749 8.51046,4.7308 14.90898,10.94457 19.76304,19.19234 3.42721,5.82336 8.34179,11.38282 10.06243,11.38282 2.16537,0 2.25915,-4.6672 0.19967,-9.93642 -3.54629,-9.07321 1.33874,-9.31402 8.11258,-0.39991 5.40575,7.11375 8.70161,8.71284 16.21136,7.86552 6.77696,-0.76465 8.48101,0.27619 10.17817,6.21691 1.61838,5.66498 1.34605,14.59361 -0.49031,16.07524 -2.2289,1.7983 -13.45231,0.60386 -23.18239,-2.4672 -10.42713,-3.29108 -11.56521,-3.21344 -14.09922,0.9618 -1.15669,1.90586 -2.25997,3.46518 -2.45173,3.46518 -1.67125,0 -25.58595,-10.18804 -27.15496,-11.56843 -2.65945,-2.33975 -4.44739,-5.86369 -5.30112,-10.44816 -1.28333,-6.89143 -8.04926,-7.5381 -22.26456,-2.12796 -9.16477,3.48796 -9.63475,3.56013 -18.91135,2.9038 l -9.51302,-0.67307 -3.85944,3.94415 c -2.2982,2.34864 -4.94489,6.70561 -6.54267,10.77053 -2.33455,5.93936 -3.50374,7.46162 -8.99813,11.71549 -4.13448,3.20099 -8.43664,7.94619 -12.45972,13.74283 -6.73032,9.69735 -6.49773,8.61454 -5.64797,26.29312 0.21593,4.49217 -0.22578,7.6311 -1.46289,10.39552 -2.24907,5.02579 -2.26297,13.34921 -0.0293,17.55548 0.94501,1.77957 3.69769,7.02254 6.11707,11.65102 3.36252,6.43278 6.27656,10.2134 12.36869,16.04698 4.3834,4.19736 9.67365,8.31844 11.75612,9.15798 7.07535,2.85235 24.10894,1.31258 32.71572,-2.95738 7.36955,-3.65616 9.26575,-3.28885 15.48012,2.99872 4.43206,4.48426 5.9865,5.44528 8.80769,5.44528 7.88514,0 10.35041,5.47692 7.06598,15.69797 -2.17813,6.77823 -2.04457,7.97069 1.40196,12.51847 6.2128,8.19795 10.71235,20.72371 10.6553,29.66202 -0.0336,5.26112 -1.71332,9.19681 -8.43332,19.75972 -4.68393,7.36245 -5.37335,10.95519 -3.90009,20.32418 1.51358,9.62545 0.92264,37.6942 -0.91556,43.48732 -1.26892,3.99898 -1.2228,4.43721 0.60718,5.77048 4.72083,3.43949 15.78741,-0.61344 30.27623,-11.08813 6.21284,-4.49156 9.79109,-7.89614 11.71168,-11.14318 1.52105,-2.57157 5.81279,-7.57645 9.53722,-11.12197 6.03945,-5.74932 7.00535,-7.21494 8.93268,-13.55407 2.02383,-6.65653 2.64287,-7.52694 9.75282,-13.71312 9.36045,-8.1443 11.97222,-13.06897 14.68611,-27.69167 3.22473,-17.37513 5.1551,-21.62282 17.68083,-38.90598 C 756.01407,538.49949 761.37,527.17754 761.37,515.61812 v -4.02465 l -6.15721,2.15372 c -6.91667,2.41935 -8.65866,1.98173 -11.05777,-2.77795 -0.78633,-1.56 -4.80696,-8.42451 -8.93475,-15.25445 -4.12778,-6.82995 -8.96908,-15.98227 -10.75846,-20.33851 -1.78936,-4.35622 -6.74599,-14.71462 -11.01474,-23.01868 -7.78518,-15.14461 -8.18066,-17.54426 -2.0672,-12.54336 2.75223,2.25137 14.34589,18.02784 14.34589,19.52165 0,0.31343 2.78944,6.23956 6.19873,13.16919 7.65686,15.56307 7.85446,16.05003 10.14742,25.00638 1.0257,4.00643 2.09976,7.51276 2.38681,7.7918 0.89158,0.86675 5.16043,-0.55909 8.82451,-2.94745 4.80405,-3.1314 13.84637,-15.05509 15.84131,-20.88919 2.50965,-7.3393 1.58603,-14.93799 -2.52111,-20.74129 l -3.32611,-4.69974 -2.54628,1.94714 c -3.92348,3.00029 -6.98262,1.31333 -13.79639,-7.60797 -7.57668,-9.92019 -9.71153,-18.71029 -3.59844,-14.81638 1.3795,0.87873 4.703,3.85127 7.38556,6.60567 4.8564,4.98647 15.82984,11.55882 23.14957,13.86506 6.26067,1.97255 9.48573,5.37189 12.51539,13.19173 1.52474,3.93553 3.22658,7.719 3.78185,8.40771 2.01365,2.49753 3.8299,12.88145 4.45656,25.47917 2.59121,52.09152 -21.32525,114.21096 -62.32244,161.8733 -9.73917,11.32251 -29.30185,29.72293 -40.99954,38.56365 -40.38499,30.52163 -83.62374,48.53732 -133.29311,55.53739 -16.44754,2.31801 -49.88229,3.28094 -64.48102,1.85708 z M 722.52189,649.33815 c 6.37946,-6.36001 12.48398,-16.17667 10.46615,-16.83056 -0.67492,-0.21871 -2.56819,-1.49467 -4.20728,-2.83546 l -2.98014,-2.43781 -6.1479,11.92276 c -3.38133,6.55752 -6.14787,12.82067 -6.14787,13.9181 0,3.47557 3.05054,2.21133 9.01704,-3.73703 z M 380.33672,481.55566 c 1.48233,-0.69068 2.69516,-1.91809 2.69516,-2.72753 0,-1.95739 -6.29456,-4.93345 -10.43867,-4.93538 -5.81893,-0.003 -9.82872,6.35857 -5.60123,8.88598 2.09136,1.25033 9.49208,0.57204 13.34474,-1.22307 z m -17.81894,-8.84406 c 2.0819,-3.23193 -5.49201,-8.93369 -16.94098,-12.75346 -5.57295,-1.85933 -7.22742,-2.05645 -9.35404,-1.11449 -2.97529,1.31789 -3.47465,4.75915 -0.80139,5.52258 0.98021,0.27992 3.53629,0.81153 5.68015,1.18134 2.72741,0.47048 5.2358,1.99166 8.35309,5.06564 3.90224,3.84802 4.92234,4.35476 8.21979,4.08313 2.15387,-0.17742 4.22621,-1.02663 4.84338,-1.98474 z m 289.42853,-77.47218 c 2.14735,-3.18601 1.57261,-6.90284 -1.12544,-7.27816 -1.582,-0.22005 -2.63214,0.76711 -4.32823,4.06865 -2.84637,5.54061 -2.83414,5.62739 0.7923,5.62739 2.09092,0 3.53746,-0.75032 4.66137,-2.41788 z M 453.81115,358.32951 c 0,-0.82171 -1.604,-3.61826 -3.56443,-6.21455 -1.96043,-2.59627 -3.56442,-5.24402 -3.56442,-5.88385 0,-0.63986 -0.45829,-0.88801 -1.01841,-0.55147 -0.56013,0.33654 -1.0184,1.34646 -1.0184,2.24429 0,0.89784 -1.67989,3.3049 -3.73311,5.34903 l -3.73309,3.71658 2.96928,1.11027 c 3.98473,1.48997 10.81576,2.67484 12.38956,2.14904 0.70016,-0.23393 1.27302,-1.09763 1.27302,-1.91934 z m 133.92047,-10.27866 c 5.54228,-1.47336 7.63805,-3.51624 7.63805,-7.44528 0,-2.52482 -0.72841,-3.80289 -3.15705,-5.53933 -1.73638,-1.24149 -4.01502,-3.88586 -5.06362,-5.87637 -2.07893,-3.94629 -6.76093,-8.06029 -8.19354,-7.19953 -1.57511,0.94636 -0.95438,5.76695 1.13811,8.83854 2.18087,3.2013 2.8818,12.74114 1.01841,13.8607 -0.56013,0.33654 -1.01841,1.47664 -1.01841,2.53356 0,2.21543 1.71767,2.40158 7.63805,0.82771 z m -11.90371,-5.87497 c 2.34873,-2.12724 2.98718,-6.31928 1.13217,-7.43381 -1.86273,-1.1192 -9.94983,2.46481 -10.69214,4.7385 -1.41222,4.32562 5.58252,6.2977 9.55997,2.69531 z m -83.97927,-30.92676 c 1.76438,-1.78417 3.96166,-4.63434 4.88284,-6.33376 1.16888,-2.15632 2.70727,-3.30656 5.09204,-3.80725 4.36804,-0.91707 9.96654,-3.67326 13.75327,-6.77087 1.84009,-1.50522 4.89463,-2.67747 8.02864,-3.08118 11.93004,-1.53678 13.72544,-2.55546 13.69929,-7.77283 -0.0124,-2.47274 0.91489,-3.94346 4.32824,-6.86485 l 4.34399,-3.71792 -2.43568,-1.99964 c -2.75077,-2.2583 -2.7966,-2.15016 1.6381,-3.86586 1.80184,-0.69709 3.77111,-1.84732 4.37615,-2.55605 2.7251,-3.19213 -32.21422,-7.082 -55.03155,-6.1268 -14.0896,0.58983 -30.14234,3.73003 -33.80427,6.61273 -2.25669,1.77646 -2.19758,1.80129 5.84452,2.45365 4.46834,0.36246 8.81168,0.75019 9.65187,0.86163 0.84018,0.11143 2.10515,1.91622 2.81103,4.01066 0.70587,2.09444 2.1953,5.05302 3.30982,6.57463 2.93885,4.01232 2.5305,6.44831 -1.60864,9.5966 -4.90301,3.72925 -6.54902,7.10143 -6.54902,13.417 0,6.10968 0.98962,7.67807 6.61964,10.49113 5.61095,2.80351 7.34237,2.62785 11.04972,-1.12102 z m -52.26186,-5.18827 c 1.64308,-0.82601 3.66241,-2.77078 4.4874,-4.32172 1.16638,-2.19273 2.46135,-2.96933 5.82254,-3.49184 7.55213,-1.174 9.17595,-4.61893 4.09204,-8.68127 -1.61857,-1.29334 -3.41747,-4.13615 -4.11153,-6.49747 -1.29625,-4.41006 -2.13023,-4.89717 -9.30538,-5.43515 -1.96042,-0.14701 -3.6217,-0.82416 -3.69172,-1.50482 -0.07,-0.68066 -0.18458,-1.6831 -0.25459,-2.22762 -0.17932,-1.39454 -7.83264,-1.19667 -13.8758,0.35877 l -5.09203,1.31061 4.58283,0.80051 c 4.46221,0.77942 4.51302,0.82911 1.93048,1.88793 -3.8821,1.59166 -6.00411,3.56562 -6.00411,5.58525 0,2.38384 4.59413,3.29309 12.26544,2.42753 5.95904,-0.67236 6.05635,-0.64329 7.14278,2.13473 0.9664,2.47102 0.81697,2.99872 -1.21865,4.30353 -9.12423,5.8486 -10.3666,9.99374 -3.93187,13.11875 4.2799,2.07851 3.53759,2.05443 7.16217,0.23228 z m 117.08344,0.22674 c 3.20144,-1.56665 4.00508,-6.08144 1.33022,-7.47313 -1.01589,-0.52856 -6.31362,-0.94627 -11.77272,-0.92826 -8.64042,0.0286 -9.92563,0.25019 -9.92563,1.71189 0,1.7394 3.07677,4.9043 6.61964,6.80923 2.75472,1.48117 10.61698,1.41269 13.74849,-0.11973 z m 126.28243,-10.00456 c 0,-0.21402 -0.71123,-0.65442 -1.5805,-0.97871 -0.9063,-0.33811 -1.3151,-0.17213 -0.95831,0.38909 0.59807,0.94075 2.53881,1.39147 2.53881,0.58962 z M 660.5477,285.40776 c 0,-3.09704 -2.06092,-4.63522 -7.08891,-5.29083 -5.11873,-0.66745 -5.25292,0.52679 -0.51369,4.57202 4.41829,3.77131 7.6026,4.07238 7.6026,0.71881 z m -53.3526,-4.91546 c 1.86918,-1.56304 2.55576,-2.87037 2.10593,-4.00996 -1.02519,-2.5972 -12.22766,-1.89385 -12.75573,0.80086 -0.41146,2.0997 3.3541,5.47052 6.15103,5.5062 0.94898,0.012 2.97343,-1.02159 4.49877,-2.2971 z M 459.02135,264.59404 c 1.46531,-1.14326 3.52758,-2.60938 4.58283,-3.25801 1.6663,-1.02423 1.3563,-1.18699 -2.35702,-1.23756 -4.75712,-0.0648 -19.0873,4.01099 -22.2215,6.3202 -1.82412,1.34399 -1.08779,1.42771 7.65664,0.87052 7.67483,-0.48903 10.22561,-1.04618 12.33905,-2.69515 z m -7.24702,376.41146 c -8.04472,-3.98624 -10.2192,-12.59676 -4.98561,-19.74202 2.78116,-3.79702 5.31294,-4.96997 10.7277,-4.96997 7.67531,0 13.59621,5.80274 13.60383,13.33235 0.0104,10.36229 -9.77854,16.12039 -19.34592,11.37964 z m -76.07646,-63.11888 c -11.30115,-6.69885 -6.46728,-24.79134 6.62363,-24.79134 6.92259,0 13.95954,8.09293 13.08789,15.05191 -1.22139,9.75123 -11.29483,14.7285 -19.71152,9.73943 z m 324.50822,-20.78996 c -7.1648,-2.08587 -10.12459,-5.948 -10.12459,-13.2113 0,-9.19029 8.61967,-15.53923 16.92488,-12.46626 7.49019,2.77142 10.89661,12.38508 6.99043,19.72847 -2.34591,4.41019 -9.0874,7.31836 -13.79072,5.94909 z M 597.04118,486.86297 c -9.49165,-6.08348 -8.91143,-19.77654 1.03237,-24.3638 15.00044,-6.91998 27.15831,14.10003 13.98284,24.17529 -3.51707,2.68949 -10.96717,2.78302 -15.01521,0.18851 z M 763.1591,430.52921 c -4.94035,-3.01764 -6.89143,-6.68621 -6.29443,-11.83527 1.49459,-12.89079 18.66269,-14.83975 23.04507,-2.61612 1.74189,4.8586 0.97804,8.31971 -2.72533,12.34875 -3.62271,3.94129 -9.55832,4.83114 -14.02531,2.10264 z M 338.74603,381.62669 c -4.39445,-2.90284 -6.09082,-6.03919 -6.11027,-11.29689 -0.0296,-8.01498 8.04943,-15.23304 15.52426,-13.8698 4.75045,0.86638 9.64282,5.58281 10.52315,10.14473 2.28142,11.82235 -10.3608,21.3478 -19.93714,15.02196 z m -61.60388,-7.48309 c 3.86219,-6.57096 10.8257,-17.07838 11.31822,-17.07838 0.72909,0 -3.85234,8.23371 -8.40104,15.09828 -5.07535,7.65936 -7.03849,8.9919 -2.91718,1.9801 z m 405.11424,-2.17156 c -2.55296,-1.12681 -4.90005,-3.0825 -5.85585,-4.87934 -3.17455,-5.96799 -1.37025,-13.93718 3.9182,-17.30584 5.13234,-3.2692 14.64719,-1.39307 17.79631,3.50908 0.68557,1.06721 1.50739,4.08198 1.82628,6.6995 0.706,5.79507 -1.54815,10.15921 -6.40458,12.39958 -4.20331,1.93905 -6.08902,1.86835 -11.28036,-0.42298 z M 348.91525,303.15502 c 0,-1.04388 9.34475,-6.5891 10.47386,-6.21525 0.68081,0.22542 -0.67879,1.36484 -3.02131,2.53208 -2.34252,1.16723 -4.5464,2.57412 -4.89754,3.12644 -0.63346,0.99641 -2.55501,1.41512 -2.55501,0.55673 z"
         id="path232" />
    </g>
  </g>
</svg>
